<?xml version="1.0" encoding="UTF-8"?>
<svg version="1.1" xmlns="http://www.w3.org/2000/svg" width="500" height="500">
<path d="M0 0 C9.9 0 19.8 0 30 0 C30 34.65 30 69.3 30 105 C21.75 105 13.5 105 5 105 C4.34 102.36 3.68 99.72 3 97 C2.5153125 97.47050781 2.030625 97.94101562 1.53125 98.42578125 C-6.82891269 106.19108621 -13.78349516 107.74540754 -25.078125 107.3515625 C-33.02400235 106.63928266 -39.44468458 103.81370219 -45 98 C-51.64583219 88.60089447 -53.55793425 77.93530502 -53.4375 66.625 C-53.42992676 65.62202881 -53.42235352 64.61905762 -53.41455078 63.58569336 C-53.16711031 52.41745847 -51.15768662 42.21609488 -43 34 C-36.45024864 28.23385321 -29.84088567 26.59043051 -21.25 26.5625 C-20.4566626 26.55935791 -19.6633252 26.55621582 -18.84594727 26.55297852 C-12.18726025 26.6883979 -5.88830935 28.11169065 -1 33 C-0.67 22.11 -0.34 11.22 0 0 Z M-21 52 C-25.18049836 58.06172262 -24.64095855 67.26177475 -23.69140625 74.28125 C-22.77606255 78.62305728 -21.55249827 81.30871343 -18 84 C-13.50730856 85.49756381 -9.67489392 85.68518388 -5.25 83.875 C-0.70036401 80.08363668 0.18292717 75.87536488 0.8125 70.1875 C1.21719261 63.39203655 0.82911963 57.74367944 -3 52 C-5.8034985 49.1965015 -7.45139078 48.82787111 -11.3125 48.75 C-15.3460816 48.80187886 -17.83706906 49.31630102 -21 52 Z " fill="#D94A2C" transform="translate(156,192)"/>
<path d="M0 0 C7.22534895 5.27649336 11.03473211 12.77452995 13.0625 21.3125 C13.5575 29.7275 13.5575 29.7275 14.0625 38.3125 C-4.7475 38.3125 -23.5575 38.3125 -42.9375 38.3125 C-41.9933395 47.65898134 -41.9933395 47.65898134 -38.5 50.875 C-32.69034513 54.13407469 -27.36716258 53.98961908 -21.125 52.25 C-17.09775586 50.22463419 -17.09775586 50.22463419 -14.9375 43.3125 C-5.3675 43.3125 4.2025 43.3125 14.0625 43.3125 C12.10561339 55.05381968 10.93091748 59.50427626 2.41015625 66.703125 C-10.1189763 75.29214764 -28.26417449 74.70849623 -42.73046875 72.81640625 C-53.01868018 70.46063209 -62.43387468 65.44793136 -68.1875 56.33203125 C-72.08986989 48.91465907 -73.3046812 41.79669998 -73.25 33.5 C-73.24436035 32.61143311 -73.2387207 31.72286621 -73.23291016 30.80737305 C-73.02692779 19.70166034 -70.32465058 10.47987766 -62.12109375 2.55859375 C-45.54904036 -10.79948565 -17.83131543 -10.54603335 0 0 Z M-39.9375 16.3125 C-42.12452362 19.30143229 -42.9375 20.59194454 -42.9375 24.3125 C-34.0275 24.3125 -25.1175 24.3125 -15.9375 24.3125 C-17.60658593 17.55046274 -17.60658593 17.55046274 -21.9375 13.3125 C-28.72293604 11.05068799 -34.44056384 11.469961 -39.9375 16.3125 Z " fill="#D94A2C" transform="translate(263.9375,225.6875)"/>
<path d="M0 0 C10.23 0 20.46 0 31 0 C34.375 9 34.375 9 35.3503418 12.3046875 C35.57034348 13.04485107 35.79034515 13.78501465 36.01701355 14.54760742 C36.24214127 15.31564697 36.46726898 16.08368652 36.69921875 16.875 C37.05908623 18.08990112 37.05908623 18.08990112 37.42622375 19.3293457 C38.18269733 21.8854374 38.93516483 24.44268756 39.6875 27 C40.20351028 28.74617231 40.71978387 30.49226683 41.23632812 32.23828125 C42.4939289 36.49129498 43.74794135 40.74535157 45 45 C47.15169278 39.43156271 49.02048572 33.85211965 50.69921875 28.125 C51.05908623 26.91009888 51.05908623 26.91009888 51.42622375 25.6706543 C52.18269733 23.1145626 52.93516483 20.55731244 53.6875 18 C54.20351028 16.25382769 54.71978387 14.50773317 55.23632812 12.76171875 C56.49442057 8.50884125 57.74707445 4.25441613 59 0 C68.9 0 78.8 0 89 0 C86.97345629 6.7551457 84.86375651 13.25225231 82.3046875 19.79296875 C81.95543716 20.69455215 81.60618683 21.59613556 81.24635315 22.52503967 C80.1262128 25.41395677 79.00072075 28.30075342 77.875 31.1875 C77.10524299 33.1694771 76.33579395 35.15157383 75.56665039 37.13378906 C73.38297663 42.7578947 71.19251511 48.37933622 69 54 C68.4415616 55.43245154 67.88312992 56.8649057 67.32470703 58.29736328 C64.89162162 64.53496927 62.44817853 70.76827284 60 77 C49.44 77 38.88 77 28 77 C21.7774213 60.83678729 21.7774213 60.83678729 19.27905273 54.33081055 C18.58710156 52.52912461 17.89512541 50.72744827 17.203125 48.92578125 C16.85435806 48.01771225 16.50559113 47.10964325 16.14625549 46.17405701 C14.12428877 40.91331709 12.09288005 35.65638174 10.05073547 30.40344238 C8.83752588 27.28075459 7.62934218 24.15613637 6.42196655 21.03118896 C5.85064686 19.5563431 5.27694912 18.08241614 4.70083618 16.60943604 C3.89992793 14.5609373 3.10727308 12.50942345 2.31640625 10.45703125 C1.64266968 8.7241687 1.64266968 8.7241687 0.95532227 6.95629883 C0 4 0 4 0 0 Z " fill="#D94A2C" transform="translate(274,220)"/>
<path d="M0 0 C10.56 0 21.12 0 32 0 C32 9.57 32 19.14 32 29 C21.44 29 10.88 29 0 29 C0 19.43 0 9.86 0 0 Z " fill="#D84A2C" transform="translate(362,268)"/>
<path d="M0 0 C5.39449293 -0.27429625 8.51925805 -0.36055646 13 3 C13.53625 2.505 14.0725 2.01 14.625 1.5 C17.71852796 -0.45380713 19.39369166 -0.51518691 23 0 C25.875 2 25.875 2 28 4 C28.53625 3.34 29.0725 2.68 29.625 2 C32 0 32 0 35 -0.375 C37.83526512 -0.02059186 39.58950039 0.51661563 42 2 C42.99 1.34 43.98 0.68 45 0 C48.6875 0.375 48.6875 0.375 52 1 C52.495 2.98 52.495 2.98 53 5 C52.34 5.33 51.68 5.66 51 6 C51.495 6.495 51.495 6.495 52 7 C52.3125 9.375 52.3125 9.375 52 12 C50.4375 13.875 50.4375 13.875 48 15 C44.4375 14.6875 44.4375 14.6875 41 14 C37.911872 13.89153477 37.911872 13.89153477 34.625 14.75 C31 15 31 15 28.0625 13.0625 C27.381875 12.381875 26.70125 11.70125 26 11 C25.62875 11.474375 25.2575 11.94875 24.875 12.4375 C22.29712043 14.58573297 20.31742783 14.79689217 17 15 C14.2884574 14.02083184 13.05198782 13.05198782 11 11 C10.62230469 11.49113281 10.24460937 11.98226563 9.85546875 12.48828125 C7.28936708 14.57897883 5.57429067 14.30262202 2.3125 14.1875 C1.31863281 14.16042969 0.32476562 14.13335937 -0.69921875 14.10546875 C-1.45847656 14.07066406 -2.21773438 14.03585937 -3 14 C-2.69147815 12.041036 -2.3780582 10.08284287 -2.0625 8.125 C-1.88847656 7.03445313 -1.71445312 5.94390625 -1.53515625 4.8203125 C-1 2 -1 2 0 0 Z M4 4 C2.64381501 5.12534105 2.64381501 5.12534105 2.9375 8.0625 C2.958125 9.031875 2.97875 10.00125 3 11 C4.32 10.34 5.64 9.68 7 9 C7 7.35 7 5.7 7 4 C6.01 4 5.02 4 4 4 Z M18 4 C16.70366379 5.06645115 16.70366379 5.06645115 16.9375 7.5625 C16.958125 8.366875 16.97875 9.17125 17 10 C18.32 10.33 19.64 10.66 21 11 C21.33 8.69 21.66 6.38 22 4 C20.68 4 19.36 4 18 4 Z M33 4 C32.67 4.33 32.34 4.66 32 5 C32 6.98 32 8.96 32 11 C35.96 10.34 39.92 9.68 44 9 C43.34 8.67 42.68 8.34 42 8 C42 7.34 42 6.68 42 6 C40.5225254 5.63883954 39.04295325 5.28624952 37.5625 4.9375 C36.73878906 4.74027344 35.91507812 4.54304688 35.06640625 4.33984375 C34.38449219 4.22769531 33.70257813 4.11554688 33 4 Z M44 9 C44.33 9.66 44.66 10.32 45 11 C45.66 10.67 46.32 10.34 47 10 C46.01 9.67 45.02 9.34 44 9 Z " fill="#CD4C34" transform="translate(350,309)"/>
<path d="M0 0 C2.375 1 2.375 1 4 2 C4.99 1.34 5.98 0.68 7 0 C10.6875 0.375 10.6875 0.375 14 1 C14.33 2.32 14.66 3.64 15 5 C13.02 5 11.04 5 9 5 C8.67 6.32 8.34 7.64 8 9 C6.68 8.67 5.36 8.34 4 8 C4 7.34 4 6.68 4 6 C3.236875 6.04125 2.47375 6.0825 1.6875 6.125 C-1 6 -1 6 -4 4 C-4 3.34 -4 2.68 -4 2 C-5.65 2.33 -7.3 2.66 -9 3 C-6.38878547 -0.48161937 -4.18929769 -0.42747936 0 0 Z " fill="#CB4D36" transform="translate(388,309)"/>
<path d="M0 0 C-0.33 0.99 -0.66 1.98 -1 3 C-1.66 3 -2.32 3 -3 3 C-3 4.65 -3 6.3 -3 8 C-5.35438733 9.42944945 -6.48032433 10.08661261 -9.25 9.625 C-9.8275 9.41875 -10.405 9.2125 -11 9 C-11 6.69 -11 4.38 -11 2 C-9.8553125 2.061875 -9.8553125 2.061875 -8.6875 2.125 C-5.10544534 1.95839281 -3.65741967 0 0 0 Z " fill="#D7472C" transform="translate(384,311)"/>
<path d="M0 0 C0.88429688 -0.03738281 1.76859375 -0.07476562 2.6796875 -0.11328125 C5.125 0.3125 5.125 0.3125 6.8203125 2.33203125 C7.25085938 2.98558594 7.68140625 3.63914062 8.125 4.3125 C8.785 4.3125 9.445 4.3125 10.125 4.3125 C9.795 5.6325 9.465 6.9525 9.125 8.3125 C8.135 7.9825 7.145 7.6525 6.125 7.3125 C6.125 6.6525 6.125 5.9925 6.125 5.3125 C5.5475 5.168125 4.97 5.02375 4.375 4.875 C2.29166667 4.35416667 0.20833333 3.83333333 -1.875 3.3125 C-2.535 4.6325 -3.195 5.9525 -3.875 7.3125 C-4.535 7.3125 -5.195 7.3125 -5.875 7.3125 C-5.91754356 5.31295254 -5.91580783 3.31208364 -5.875 1.3125 C-4.21607528 -0.34642472 -2.27452582 0.06263187 0 0 Z " fill="#D8492E" transform="translate(355.875,310.6875)"/>
<path d="M0 0 C0.33 0 0.66 0 1 0 C1.42317708 1.98567708 1.84635417 3.97135417 2.26953125 5.95703125 C3.14368288 8.40185106 3.92282347 9.4421176 6 11 C8.49443774 11.78798055 8.49443774 11.78798055 11.1875 12.1875 C12.08855469 12.34605469 12.98960937 12.50460937 13.91796875 12.66796875 C14.94857422 12.83232422 14.94857422 12.83232422 16 13 C16 13.66 16 14.32 16 15 C14.63875 14.9690625 14.63875 14.9690625 13.25 14.9375 C10.15065303 14.85422971 10.15065303 14.85422971 7.875 15.625 C6 16 6 16 3.8125 15.375 C1.34369137 13.50211069 1.43866142 11.99751967 1 9 C0.34 8.01 -0.32 7.02 -1 6 C-0.625 2.8125 -0.625 2.8125 0 0 Z " fill="#CF4C36" transform="translate(132,264)"/>
<path d="M0 0 C10.23 0 20.46 0 31 0 C34.375 9 34.375 9 35 13 C33.0625 11.5 33.0625 11.5 31 9 C30.67 6.36 30.34 3.72 30 1 C20.43 1 10.86 1 1 1 C0.67 1.99 0.34 2.98 0 4 C0 2.68 0 1.36 0 0 Z " fill="#BE5540" transform="translate(274,220)"/>
<path d="M0 0 C0.33 0 0.66 0 1 0 C1.17015625 0.61488281 1.3403125 1.22976563 1.515625 1.86328125 C2.94773996 6.88680838 2.94773996 6.88680838 6 11 C12.10335022 14.05167511 18.49812496 13.30037501 25 12 C25 12.66 25 13.32 25 14 C19.27242775 15.90919075 11.5464029 16.28152663 5.81640625 14.2109375 C3.18574346 12.49215034 1.7435907 10.61538605 0 8 C-0.25760279 5.30547479 -0.08900053 2.71451625 0 0 Z " fill="#C4523D" transform="translate(220,266)"/>
<path d="M0 0 C0.66 0.33 1.32 0.66 2 1 C1.34 2.98 0.68 4.96 0 7 C8.25 7 16.5 7 25 7 C25 7.33 25 7.66 25 8 C23.87972412 8.029729 23.87972412 8.029729 22.73681641 8.06005859 C19.36584395 8.15508211 15.99551071 8.26485259 12.625 8.375 C11.449375 8.4059375 10.27375 8.436875 9.0625 8.46875 C7.94101563 8.50742188 6.81953125 8.54609375 5.6640625 8.5859375 C4.62717285 8.6173584 3.5902832 8.6487793 2.52197266 8.68115234 C-0.16809835 8.75954472 -0.16809835 8.75954472 -2 11 C-2.66 9.35 -3.32 7.7 -4 6 C-3.34 6 -2.68 6 -2 6 C-1.34 4.02 -0.68 2.04 0 0 Z " fill="#CB5134" transform="translate(221,243)"/>
<path d="M0 0 C2.375 1.375 2.375 1.375 4 3 C4 3.66 4 4.32 4 5 C2.68 4.67 1.36 4.34 0 4 C0 5.98 0 7.96 0 10 C-0.66 9.67 -1.32 9.34 -2 9 C-1.67 7.35 -1.34 5.7 -1 4 C-3.85778033 3.31506627 -3.85778033 3.31506627 -7 3 C-7.99 3.66 -8.98 4.32 -10 5 C-7.6853348 -0.12533009 -5.56888064 -0.44551045 0 0 Z " fill="#C44E3C" transform="translate(373,309)"/>
<path d="M0 0 C1.32 0.33 2.64 0.66 4 1 C-1.32900386 6.14581936 -6.43722688 9.71482668 -14 10.1875 C-14.66 10.125625 -15.32 10.06375 -16 10 C-16 9.34 -16 8.68 -16 8 C-13.69 8 -11.38 8 -9 8 C-8.67 7.01 -8.34 6.02 -8 5 C-6.68 5 -5.36 5 -4 5 C-4 4.34 -4 3.68 -4 3 C-2.68 2.34 -1.36 1.68 0 1 C0 0.67 0 0.34 0 0 Z " fill="#C85138" transform="translate(154,289)"/>
<path d="M0 0 C5.61 0 11.22 0 17 0 C17 0.33 17 0.66 17 1 C16.39671875 1.03738281 15.7934375 1.07476562 15.171875 1.11328125 C9.00632228 1.56253341 9.00632228 1.56253341 4 5 C3.67 4.01 3.34 3.02 3 2 C2.34 1.67 1.68 1.34 1 1 C1 2.65 1 4.3 1 6 C0.01 5.67 -0.98 5.34 -2 5 C-1.34 3.35 -0.68 1.7 0 0 Z " fill="#D04F2F" transform="translate(249,269)"/>
<path d="M0 0 C0.33 0 0.66 0 1 0 C1.18232764 4.64935477 0.7293982 7.7341511 -1 12 C-0.6937566 13.33981486 -0.36548445 14.67511887 0 16 C-0.66 16.66 -1.32 17.32 -2 18 C-2.33 17.34 -2.66 16.68 -3 16 C-5.52733235 15.34444881 -5.52733235 15.34444881 -8 15 C-7.21625 14.2575 -6.4325 13.515 -5.625 12.75 C-1.67934792 8.61645973 -0.76832402 5.63437616 0 0 Z " fill="#CA4F37" transform="translate(156,262)"/>
<path d="M0 0 C2.97 0.33 5.94 0.66 9 1 C6.75 3.0625 6.75 3.0625 4 5 C1.6875 4.75 1.6875 4.75 0 4 C0 2.68 0 1.36 0 0 Z " fill="#CD4F30" transform="translate(258,290)"/>
<path d="M0 0 C0.66 0 1.32 0 2 0 C1.01 2.97 0.02 5.94 -1 9 C-1.66 9 -2.32 9 -3 9 C-3 7.35 -3 5.7 -3 4 C-3.99 3.67 -4.98 3.34 -6 3 C-4.125 1.9375 -4.125 1.9375 -2 1 C-1.34 1.33 -0.68 1.66 0 2 C0 1.34 0 0.68 0 0 Z " fill="#CE4E39" transform="translate(335,288)"/>
<path d="M0 0 C6.75 1.875 6.75 1.875 9 3 C8.01 3.33 7.02 3.66 6 4 C6 7.3 6 10.6 6 14 C5.67 14 5.34 14 5 14 C4.89042969 13.40832031 4.78085938 12.81664062 4.66796875 12.20703125 C3.74085597 7.58654237 2.77648665 3.9123221 0 0 Z " fill="#C84F35" transform="translate(151,242)"/>
<path d="M0 0 C0 0.33 0 0.66 0 1 C-1.7015625 1.433125 -1.7015625 1.433125 -3.4375 1.875 C-4.613125 2.24625 -5.78875 2.6175 -7 3 C-7.33 3.66 -7.66 4.32 -8 5 C-10.31 4.01 -12.62 3.02 -15 2 C-15 1.67 -15 1.34 -15 1 C-10.03926578 -0.32286246 -5.08888488 -0.08893197 0 0 Z " fill="#CC5030" transform="translate(233,219)"/>
<path d="M0 0 C0.33 0 0.66 0 1 0 C1.04254356 1.99954746 1.04080783 4.00041636 1 6 C0.67 6.33 0.34 6.66 0 7 C-0.04080783 8.99958364 -0.04254356 11.00045254 0 13 C-1.98 13.99 -1.98 13.99 -4 15 C-3.52229477 13.06213915 -3.04278429 11.12472326 -2.5625 9.1875 C-2.29566406 8.10855469 -2.02882813 7.02960938 -1.75390625 5.91796875 C-1.23922588 3.9259157 -0.65062825 1.95188476 0 0 Z " fill="#C74F34" transform="translate(332,224)"/>
<path d="M0 0 C0.66 0 1.32 0 2 0 C1.25 6.75 1.25 6.75 -1 9 C-1 8.01 -1 7.02 -1 6 C-1.66 5.67 -2.32 5.34 -3 5 C-3 4.34 -3 3.68 -3 3 C-2.34 3 -1.68 3 -1 3 C-0.67 2.01 -0.34 1.02 0 0 Z " fill="#CD4D33" transform="translate(275,274)"/>
<path d="M0 0 C1 2 1 2 0.44140625 3.9453125 C0.15136719 4.66460937 -0.13867188 5.38390625 -0.4375 6.125 C-0.72496094 6.84945312 -1.01242187 7.57390625 -1.30859375 8.3203125 C-1.53675781 8.87460938 -1.76492188 9.42890625 -2 10 C-2.33 10 -2.66 10 -3 10 C-3.33 7.03 -3.66 4.06 -4 1 C-2.68 0.67 -1.36 0.34 0 0 Z " fill="#CD4F32" transform="translate(358,230)"/>
<path d="M0 0 C0.99 0.33 1.98 0.66 3 1 C3.6875 3.0625 3.6875 3.0625 4 5 C2.35 5.66 0.7 6.32 -1 7 C-0.67 4.69 -0.34 2.38 0 0 Z " fill="#D8462B" transform="translate(397,314)"/>
<path d="M0 0 C0.66 0.66 1.32 1.32 2 2 C0.68 2 -0.64 2 -2 2 C-2 2.66 -2 3.32 -2 4 C-2.66 4 -3.32 4 -4 4 C-4 3.34 -4 2.68 -4 2 C-5.65 2.33 -7.3 2.66 -9 3 C-6.40257043 -0.46323942 -4.16948329 -0.44356205 0 0 Z " fill="#BE4E3A" transform="translate(388,309)"/>
<path d="M0 0 C0.66 0 1.32 0 2 0 C1.01 3.3 0.02 6.6 -1 10 C-3 6 -3 6 -3 2 C-1 3 -1 3 0 4 C0 2.68 0 1.36 0 0 Z " fill="#C65037" transform="translate(341,272)"/>
<path d="M0 0 C0.99 0.66 1.98 1.32 3 2 C3 2.66 3 3.32 3 4 C1.68 3.67 0.36 3.34 -1 3 C-1 4.98 -1 6.96 -1 9 C-1.66 8.67 -2.32 8.34 -3 8 C-2.67 6.35 -2.34 4.7 -2 3 C-3.32 2.67 -4.64 2.34 -6 2 C-4.02 2 -2.04 2 0 2 C0 1.34 0 0.68 0 0 Z " fill="#B9523A" transform="translate(374,310)"/>
<path d="M0 0 C1.32 0.33 2.64 0.66 4 1 C2.60667426 4.36720387 1.0210714 5.9859524 -2 8 C-1.34 5.36 -0.68 2.72 0 0 Z " fill="#C45139" transform="translate(270,282)"/>
<path d="M0 0 C3 2 3 2 3.73046875 4.1640625 C3.88128906 4.97617188 4.03210938 5.78828125 4.1875 6.625 C4.34605469 7.44226563 4.50460937 8.25953125 4.66796875 9.1015625 C4.83232422 10.04128906 4.83232422 10.04128906 5 11 C1.87729874 8.48169253 1.05476902 7.2738451 0.25 3.25 C0.1675 2.1775 0.085 1.105 0 0 Z " fill="#CA4F36" transform="translate(304,222)"/>
<path d="M0 0 C2.475 0.99 2.475 0.99 5 2 C4.34 3.32 3.68 4.64 3 6 C2.67 5.34 2.34 4.68 2 4 C0.02 4.99 0.02 4.99 -2 6 C-1.34 4.02 -0.68 2.04 0 0 Z " fill="#C64F37" transform="translate(357,314)"/>
<path d="M0 0 C0.66 0 1.32 0 2 0 C4 2 4 2 5 5 C3.35 5 1.7 5 0 5 C0 3.35 0 1.7 0 0 Z " fill="#D04D35" transform="translate(161,292)"/>
<path d="M0 0 C0.33 0.66 0.66 1.32 1 2 C-1.4 8.4 -1.4 8.4 -4 11 C-3.48964169 6.6109185 -2.47785723 3.66291938 0 0 Z " fill="#C3523A" transform="translate(109,231)"/>
<path d="M0 0 C2.31 0 4.62 0 7 0 C7.33 1.32 7.66 2.64 8 4 C5.36 3.34 2.72 2.68 0 2 C0 1.34 0 0.68 0 0 Z " fill="#D14F2E" transform="translate(127,219)"/>
<path d="M0 0 C0 0.66 0 1.32 0 2 C-0.99 2 -1.98 2 -3 2 C-3.33 2.99 -3.66 3.98 -4 5 C-5.32 4.67 -6.64 4.34 -8 4 C-2.25 0 -2.25 0 0 0 Z " fill="#BF533E" transform="translate(212,223)"/>
</svg>
